Crank 2: High Voltage is the follow up to Crank's electrifying success, keeping alive hitman Chev Chelios as he launches himself on an electrifying chase through Los Angeles in pursuit of the Chinese mobster who has stolen his nearly indestructible heart.

Format : MPEG-4
Format profile : Base Media / Version 2
Codec ID : mp42
File size : 800 MiB
Duration : 1h 35mn
Overall bit rate : 1 166 Kbps
Encoded date : UTC 2009-07-29 04:45:12
Tagged date : UTC 2009-07-29 07:12:31
Writing application : HandBrake 0.9.3 2008112300

Video
ID : 1
Format : AVC
Format/Info : Advanced Video Codec
Format profile : Main@L4.0
Format settings, CABAC : Yes
Format settings, ReFrames : 3 frames
Codec ID : avc1
Codec ID/Info : Advanced Video Coding
Duration : 1h 35mn
Bit rate mode : Variable
Bit rate : 1 002 Kbps
Width : 624 pixels
Height : 352 pixels
Display aspect ratio : 16/9
Frame rate mode : Variable
Frame rate : 23.976 fps
Minimum frame rate : 11.988 fps
Maximum frame rate : 23.988 fps
Resolution : 24 bits
Colorimetry : 4:2:0
Scan type : Progressive
Bits/(Pixel*Frame) : 0.190
Stream size : 687 MiB (86%)
Writing library : x264 core 65

Audio
ID : 2
Format : AAC
Format/Info : Advanced Audio Codec
Format version : Version 4
Format profile : LC
Format settings, SBR : No
Codec ID : 40
Duration : 1h 35mn
Bit rate mode : Variable
Bit rate : 160 Kbps
Maximum bit rate : 250 Kbps
Channel(s) : 2 channels
Channel positions : L R
Sampling rate : 48.0 KHz
Resolution : 16 bits
Stream size : 109 MiB (14%)
Encoded date : UTC 2009-07-29 04:45:12
Tagged date : UTC 2009-07-29 07:12:27